# xmcd
#
# Track frame offsets: 
#        150
#        15689
#        27087
#        44123
#        59170
#        69110
#
# Disc length: 1321 seconds
#
# Revision: 0
# Processed by: cddbd v1.5.1PL0 Copyright (c) Steve Scherf et al.
# Submitted via: ExactAudioCopy v0.95a3
#
DISCID=4f052706
DTITLE=the little pilgrims - the little pilgrims
DYEAR=2005
DGENRE=
TTITLE0=the little pilgrims -01- billy bishop high
TTITLE1=the little pilgrims -02- catmandoya
TTITLE2=the little pilgrims -03- handful of knives
TTITLE3=the little pilgrims -04- lookin and actin like a prune
TTITLE4=the little pilgrims -05- too hot to trot
TTITLE5=the little pilgrims -06- broken heater
EXTD=
EXTT0=
EXTT1=
EXTT2=
EXTT3=
EXTT4=
EXTT5=
PLAYORDER=
